# xmcd
#
# Track frame offsets:
#	150
#	14614
#	30777
#	49455
#	69307
#	89915
#	102543
#	116700
#	131668
#	148248
#	162070
#	180831
#	199000
#
# Disc length: 2943 seconds
#
# Revision: 0
# Processed by: cddbd v1.5.1PL2 Copyright (c) Steve Scherf et al.
# Submitted via: EasyCDDAExtractor 9.0.0.1
#
DISCID=b70b7d0d
DTITLE=Various Artist - The Best Of Both Worlds
DYEAR=2002
DGENRE=Hip-Hop
TTITLE0=R. Kelly and Jay-Z - The Best Of Both Worlds
TTITLE1=R. Kelly and Jay-Z - Take You Home With Me (AKA Body)
TTITLE2=R. Kelly and Jay-Z - Break Up To Make Up
TTITLE3=R. Kelly and Jay-Z - It Ain't Personal
TTITLE4=R. Kelly and Jay-Z - The Streets
TTITLE5=R. Kelly and Jay-Z - Green Light (Featuring Beanie Sigel)
TTITLE6=R. Kelly - Naked
TTITLE7=R. Kelly and Jay-Z - Shake Ya Body (Featuring Lil' Kim)
TTITLE8=R. Kelly and Jay-Z - Somebody's Girl
TTITLE9=R. Kelly and Jay-Z - Get This Money
TTITLE10=R. Kelly and Jay-Z - Shorty
TTITLE11=R. Kelly and Jay-Z - Honey
TTITLE12=R. Kelly and Jay-Z - Pussy (Featuring Devin The Dude)
EXTD=
EXTT0=
EXTT1=
EXTT2=
EXTT3=
EXTT4=
EXTT5=
EXTT6=
EXTT7=
EXTT8=
EXTT9=
EXTT10=
EXTT11=
EXTT12=
PLAYORDER=
